<?xml version="1.0" encoding="utf-8"?><svg viewBox="0 0 414 260" xmlns="http://www.w3.org/2000/svg" xmlns:xlink="http://www.w3.org/1999/xlink"><style>:root>svg{display:none}:root>svg:target{display:block}</style><svg fill="none" viewBox="0 0 260 260" id="favicons--favicon" xmlns="http://www.w3.org/2000/svg">
    <g clip-path="url(#ca)">
        <rect width="260" height="260" rx="40" fill="#000"/>
        <path fill="#fff" d="M16 44h227v173H16z"/>
        <path d="M13 13h234c7.18 0 13 5.82 13 13v208c0 7.18-5.82 13-13 13H13c-7.18 0-13-5.82-13-13V26c0-7.18 5.82-13 13-13Zm175.039 162.961L234 130l-45.961-45.962-18.385 18.385L197.231 130l-27.577 27.577 18.385 18.384ZM62.769 130l27.578-27.577-18.385-18.385L26 130l45.962 45.961 18.385-18.384L62.77 130Zm57.407 65 47.316-130h-27.668L92.508 195h27.668Z" fill="#000"/>
    </g>
    <defs>
        <clipPath id="ca">
            <rect width="260" height="260" rx="40" fill="#fff"/>
        </clipPath>
    </defs>
</svg><svg fill="none" viewBox="0 0 24 27" id="favicons--leaf" xmlns="http://www.w3.org/2000/svg">
    <path d="M1.405 26.021a1.405 1.405 0 0 1-.994-2.4l7.649-7.648a1.407 1.407 0 0 1 1.988 1.988L2.4 25.61c-.261.264-.62.411-.995.411Z" fill="#ED952B"/>
    <path d="m23.923.077-20 19.997C-.253 15.896-.253 9.12 3.924 4.94c5.945-5.944 20-4.863 20-4.863Z" fill="#FEC86E"/>
    <path d="M19.056 20.073c-4.177 4.18-10.953 4.18-15.133 0l20-19.997s1.08 14.052-4.866 19.997Z" fill="#ED952B"/>
</svg><svg fill="none" viewBox="0 0 414 30" id="footer--footer-logo" xmlns="http://www.w3.org/2000/svg">
    <path d="M2.615 29.875c-.79 0-1.43-.235-1.92-.705C.232 28.672 0 28.008 0 27.178V2.905c0-.803.218-1.425.654-1.868.463-.442 1.09-.664 1.88-.664h10.052c3.078 0 5.476.789 7.192 2.366 1.716 1.549 2.574 3.734 2.574 6.556 0 2.821-.858 5.02-2.574 6.597-1.716 1.577-4.114 2.365-7.192 2.365H5.27v8.921c0 .83-.245 1.494-.735 1.992-.463.47-1.103.705-1.92.705Zm9.317-15.726c3.623 0 5.435-1.604 5.435-4.813 0-3.209-1.812-4.813-5.435-4.813h-6.66v9.626h6.66ZM62.274 26.431c.164.36.245.72.245 1.08 0 .636-.258 1.175-.776 1.618a2.481 2.481 0 0 1-1.716.663c-.436 0-.845-.11-1.226-.331-.382-.25-.681-.623-.9-1.12l-2.45-5.56H41.065l-2.452 5.56c-.218.497-.517.87-.899 1.12a2.478 2.478 0 0 1-1.266.332c-.627 0-1.2-.222-1.717-.664-.517-.443-.776-.982-.776-1.619 0-.36.082-.719.245-1.079L45.48 1.826c.246-.554.613-.968 1.104-1.245a3.177 3.177 0 0 1 1.634-.457c.572 0 1.104.153 1.594.457a2.53 2.53 0 0 1 1.144 1.245l11.32 24.605Zm-19.41-7.8h10.788L48.258 6.307l-5.394 12.324ZM112.12 1.784c.19-.553.49-.968.899-1.245a2.616 2.616 0 0 1 1.43-.415c.654 0 1.212.208 1.675.623.491.415.736.968.736 1.66 0 .249-.068.608-.204 1.078l-8.786 24.69a2.533 2.533 0 0 1-1.103 1.286 3.042 3.042 0 0 1-1.635.456 3.247 3.247 0 0 1-1.675-.456 2.337 2.337 0 0 1-1.063-1.287L95.611 8.631l-6.906 19.543a2.531 2.531 0 0 1-1.103 1.287 3.038 3.038 0 0 1-1.635.456 3.25 3.25 0 0 1-1.675-.456 2.382 2.382 0 0 1-1.022-1.287L74.485 3.485c-.137-.414-.205-.774-.205-1.078 0-.692.245-1.245.736-1.66a2.792 2.792 0 0 1 1.798-.623c.545 0 1.035.139 1.47.415.437.277.75.692.94 1.245l6.947 20.29L93.322 1.91c.191-.554.504-.982.94-1.287a2.31 2.31 0 0 1 1.43-.498c.518 0 .995.166 1.43.498.464.305.79.747.982 1.328l6.946 20.374 7.07-20.54ZM136.244 29.875c-.791 0-1.431-.248-1.921-.746-.463-.498-.695-1.148-.695-1.95V2.904c0-.803.218-1.425.654-1.868.463-.442 1.09-.664 1.88-.664h14.343c1.662 0 2.493.72 2.493 2.158 0 1.41-.831 2.116-2.493 2.116h-11.687v7.967h10.87c1.661 0 2.492.72 2.492 2.158 0 1.41-.831 2.116-2.492 2.116h-10.87v10.29c0 .803-.232 1.453-.695 1.95-.463.499-1.089.747-1.879.747ZM171.566 29.627c-.79 0-1.416-.222-1.88-.664-.435-.443-.653-1.065-.653-1.868V2.905c0-.803.218-1.425.653-1.868.464-.442 1.09-.664 1.88-.664h14.752c.79 0 1.403.18 1.839.54.436.36.653.871.653 1.535 0 .692-.217 1.231-.653 1.618-.436.36-1.049.54-1.839.54h-12.137v8.05h11.32c.79 0 1.403.18 1.838.539.436.36.654.885.654 1.577 0 .664-.218 1.175-.654 1.535-.435.36-1.048.54-1.838.54h-11.32v8.547h12.137c.79 0 1.403.194 1.839.581.436.36.653.885.653 1.577 0 .664-.217 1.175-.653 1.535-.436.36-1.049.54-1.839.54h-14.752ZM218.147 30c-2.779 0-5.217-.609-7.315-1.826-2.07-1.217-3.664-2.96-4.781-5.228-1.117-2.268-1.675-4.924-1.675-7.967 0-3.043.558-5.684 1.675-7.925 1.117-2.268 2.711-4.011 4.781-5.228C212.93.609 215.368 0 218.147 0c1.798 0 3.487.277 5.067.83 1.58.525 2.983 1.3 4.209 2.324.354.276.599.567.735.87.137.305.205.679.205 1.121 0 .609-.164 1.12-.491 1.536-.326.414-.721.622-1.185.622-.544 0-1.103-.194-1.675-.581-1.171-.885-2.261-1.494-3.269-1.826-1.008-.36-2.125-.54-3.351-.54-2.833 0-4.985.9-6.456 2.698-1.444 1.798-2.166 4.44-2.166 7.925 0 3.513.722 6.169 2.166 7.967 1.471 1.798 3.623 2.697 6.456 2.697 1.172 0 2.248-.18 3.228-.54 1.008-.359 2.139-.968 3.392-1.825.272-.166.545-.304.817-.415.273-.11.559-.166.858-.166.464 0 .859.208 1.185.623.327.414.491.926.491 1.535 0 .415-.068.788-.205 1.12-.136.304-.381.595-.735.871a13.425 13.425 0 0 1-4.209 2.366c-1.58.525-3.269.788-5.067.788ZM254.269 29.834c-.817 0-1.471-.235-1.961-.705-.464-.498-.695-1.148-.695-1.95V4.771h-7.437c-1.635 0-2.452-.733-2.452-2.2 0-1.466.817-2.199 2.452-2.199h20.145c1.635 0 2.452.734 2.452 2.2 0 1.466-.817 2.199-2.452 2.199h-7.437v22.406c0 .803-.245 1.453-.735 1.95-.463.47-1.09.706-1.88.706ZM284.765 29.875c-.79 0-1.431-.248-1.921-.746-.463-.498-.695-1.148-.695-1.95V2.821c0-.803.232-1.439.695-1.91.49-.497 1.131-.746 1.921-.746.817 0 1.457.249 1.92.747.491.47.736 1.106.736 1.909v24.356c0 .803-.245 1.453-.736 1.95-.463.499-1.103.747-1.92.747ZM318.732 30c-2.806 0-5.244-.609-7.314-1.826-2.043-1.217-3.623-2.96-4.74-5.228s-1.676-4.924-1.676-7.967c0-3.043.545-5.684 1.635-7.925 1.117-2.268 2.71-4.011 4.781-5.228C313.488.609 315.926 0 318.732 0s5.231.609 7.274 1.826c2.07 1.217 3.65 2.96 4.74 5.228 1.117 2.24 1.676 4.882 1.676 7.925s-.559 5.699-1.676 7.967-2.71 4.011-4.781 5.228c-2.043 1.217-4.454 1.826-7.233 1.826Zm0-4.274c2.643 0 4.7-.927 6.171-2.78 1.498-1.853 2.247-4.509 2.247-7.967 0-3.458-.749-6.1-2.247-7.925-1.471-1.853-3.528-2.78-6.171-2.78-2.669 0-4.753.927-6.252 2.78-1.471 1.826-2.206 4.467-2.206 7.925s.735 6.114 2.206 7.967c1.499 1.853 3.583 2.78 6.252 2.78ZM371.826.166c.763 0 1.362.249 1.798.747.463.47.695 1.106.695 1.909v24.356c0 .803-.232 1.453-.695 1.95-.463.499-1.062.747-1.798.747-.872 0-1.539-.318-2.002-.954l-14.915-19.71v17.967c0 .803-.218 1.453-.654 1.95-.436.499-1.035.747-1.798.747-.763 0-1.362-.248-1.798-.746-.436-.498-.654-1.148-.654-1.95V2.821c0-.803.232-1.439.695-1.91.463-.497 1.076-.746 1.838-.746.845 0 1.499.318 1.962.954l14.874 19.627V2.822c0-.803.218-1.439.654-1.91.463-.497 1.062-.746 1.798-.746ZM402.763 30c-2.098 0-4.087-.277-5.967-.83-1.852-.58-3.364-1.355-4.535-2.324-.627-.47-.94-1.134-.94-1.991 0-.581.163-1.08.49-1.494.354-.443.763-.664 1.226-.664.49 0 1.049.194 1.675.581 1.172.858 2.398 1.48 3.678 1.867 1.281.387 2.697.581 4.25.581 1.989 0 3.514-.346 4.577-1.037 1.062-.72 1.593-1.757 1.593-3.112 0-1.051-.504-1.854-1.512-2.407-.98-.58-2.628-1.134-4.944-1.66-2.397-.525-4.345-1.134-5.844-1.825-1.498-.692-2.628-1.577-3.391-2.656-.763-1.079-1.144-2.448-1.144-4.108 0-1.715.476-3.25 1.43-4.606.953-1.355 2.275-2.406 3.964-3.153C399.085.387 401.005 0 403.13 0c3.896 0 7.07 1.051 9.522 3.154.354.304.599.608.735.912.164.277.245.637.245 1.08 0 .58-.177 1.092-.531 1.535-.327.414-.722.622-1.185.622-.272 0-.531-.042-.776-.125a6.687 6.687 0 0 1-.899-.456c-1.117-.83-2.207-1.438-3.27-1.826-1.035-.415-2.315-.622-3.841-.622-1.852 0-3.323.387-4.413 1.162-1.062.747-1.594 1.798-1.594 3.153 0 1.134.477 2.006 1.431 2.614.953.609 2.574 1.176 4.862 1.702 2.425.553 4.386 1.175 5.885 1.867 1.525.664 2.683 1.521 3.473 2.572.817 1.052 1.226 2.365 1.226 3.942 0 1.715-.477 3.237-1.43 4.565-.926 1.3-2.248 2.323-3.964 3.07-1.689.72-3.637 1.079-5.843 1.079Z" fill="#333"/>
</svg><svg fill="none" viewBox="0 0 24 27" id="leaf" xmlns="http://www.w3.org/2000/svg">
    <path d="M1.405 26.021a1.405 1.405 0 0 1-.994-2.4l7.649-7.648a1.407 1.407 0 0 1 1.988 1.988L2.4 25.61c-.261.264-.62.411-.995.411Z" fill="#ED952B"/>
    <path d="m23.923.077-20 19.997C-.253 15.896-.253 9.12 3.924 4.94c5.945-5.944 20-4.863 20-4.863Z" fill="#FEC86E"/>
    <path d="M19.056 20.073c-4.177 4.18-10.953 4.18-15.133 0l20-19.997s1.08 14.052-4.866 19.997Z" fill="#ED952B"/>
</svg><svg fill="none" viewBox="0 0 414 30" id="logo" xmlns="http://www.w3.org/2000/svg">
    <path d="M2.615 29.875c-.79 0-1.43-.235-1.92-.705C.232 28.672 0 28.008 0 27.178V2.905c0-.803.218-1.425.654-1.868.463-.442 1.09-.664 1.88-.664h10.052c3.078 0 5.476.789 7.192 2.366 1.716 1.549 2.574 3.734 2.574 6.556 0 2.821-.858 5.02-2.574 6.597-1.716 1.577-4.114 2.365-7.192 2.365H5.27v8.921c0 .83-.245 1.494-.735 1.992-.463.47-1.103.705-1.92.705Zm9.317-15.726c3.623 0 5.435-1.604 5.435-4.813 0-3.209-1.812-4.813-5.435-4.813h-6.66v9.626h6.66ZM62.274 26.431c.164.36.245.72.245 1.08 0 .636-.258 1.175-.776 1.618a2.481 2.481 0 0 1-1.716.663c-.436 0-.845-.11-1.226-.331-.382-.25-.681-.623-.9-1.12l-2.45-5.56H41.065l-2.452 5.56c-.218.497-.517.87-.899 1.12a2.478 2.478 0 0 1-1.266.332c-.627 0-1.2-.222-1.717-.664-.517-.443-.776-.982-.776-1.619 0-.36.082-.719.245-1.079L45.48 1.826c.246-.554.613-.968 1.104-1.245a3.177 3.177 0 0 1 1.634-.457c.572 0 1.104.153 1.594.457a2.53 2.53 0 0 1 1.144 1.245l11.32 24.605Zm-19.41-7.8h10.788L48.258 6.307l-5.394 12.324ZM112.12 1.784c.19-.553.49-.968.899-1.245a2.616 2.616 0 0 1 1.43-.415c.654 0 1.212.208 1.675.623.491.415.736.968.736 1.66 0 .249-.068.608-.204 1.078l-8.786 24.69a2.533 2.533 0 0 1-1.103 1.286 3.042 3.042 0 0 1-1.635.456 3.247 3.247 0 0 1-1.675-.456 2.337 2.337 0 0 1-1.063-1.287L95.611 8.631l-6.906 19.543a2.53 2.53 0 0 1-1.103 1.287 3.038 3.038 0 0 1-1.635.456 3.25 3.25 0 0 1-1.675-.456 2.382 2.382 0 0 1-1.022-1.287L74.485 3.485c-.137-.414-.205-.774-.205-1.078 0-.692.245-1.245.736-1.66a2.792 2.792 0 0 1 1.798-.623c.545 0 1.035.139 1.47.415.437.277.75.692.94 1.245l6.947 20.29L93.322 1.91c.191-.554.504-.982.94-1.287a2.31 2.31 0 0 1 1.43-.498c.518 0 .995.166 1.43.498.464.305.79.747.981 1.328l6.947 20.374 7.07-20.54ZM136.244 29.875c-.791 0-1.431-.248-1.921-.746-.463-.498-.695-1.148-.695-1.95V2.904c0-.803.218-1.425.654-1.868.463-.442 1.09-.664 1.88-.664h14.343c1.662 0 2.493.72 2.493 2.158 0 1.41-.831 2.116-2.493 2.116h-11.687v7.967h10.87c1.661 0 2.492.72 2.492 2.158 0 1.41-.831 2.116-2.492 2.116h-10.87v10.29c0 .803-.232 1.453-.695 1.95-.463.499-1.089.747-1.879.747ZM171.566 29.627c-.79 0-1.416-.222-1.88-.664-.435-.443-.653-1.065-.653-1.868V2.905c0-.803.218-1.425.653-1.868.464-.442 1.09-.664 1.88-.664h14.752c.79 0 1.403.18 1.839.54.436.36.653.871.653 1.535 0 .692-.217 1.231-.653 1.618-.436.36-1.049.54-1.839.54h-12.137v8.05h11.32c.79 0 1.403.18 1.838.539.436.36.654.885.654 1.577 0 .664-.218 1.175-.654 1.535-.435.36-1.048.54-1.838.54h-11.32v8.547h12.137c.79 0 1.403.194 1.839.581.436.36.653.885.653 1.577 0 .664-.217 1.175-.653 1.535-.436.36-1.049.54-1.839.54h-14.752ZM218.147 30c-2.779 0-5.217-.609-7.315-1.826-2.07-1.217-3.664-2.96-4.781-5.228-1.117-2.268-1.675-4.924-1.675-7.967 0-3.043.558-5.684 1.675-7.925 1.117-2.268 2.711-4.011 4.781-5.228C212.93.609 215.368 0 218.147 0c1.798 0 3.487.277 5.067.83 1.58.525 2.983 1.3 4.209 2.324.354.276.599.567.735.87.137.305.205.679.205 1.121 0 .609-.164 1.12-.491 1.536-.326.414-.722.622-1.185.622-.544 0-1.103-.194-1.675-.581-1.171-.885-2.261-1.494-3.269-1.826-1.008-.36-2.125-.54-3.351-.54-2.833 0-4.985.9-6.456 2.698-1.444 1.798-2.166 4.44-2.166 7.925 0 3.513.722 6.169 2.166 7.967 1.471 1.798 3.623 2.697 6.456 2.697 1.172 0 2.248-.18 3.228-.54 1.008-.359 2.139-.968 3.392-1.825.272-.166.545-.304.817-.415.273-.11.559-.166.858-.166.463 0 .859.208 1.185.623.327.414.491.926.491 1.535 0 .415-.068.788-.205 1.12-.136.304-.381.595-.735.871a13.425 13.425 0 0 1-4.209 2.366c-1.58.525-3.269.788-5.067.788ZM254.269 29.834c-.817 0-1.471-.235-1.962-.705-.463-.498-.694-1.148-.694-1.95V4.771h-7.437c-1.635 0-2.452-.733-2.452-2.2 0-1.466.817-2.199 2.452-2.199h20.145c1.635 0 2.452.734 2.452 2.2 0 1.466-.817 2.199-2.452 2.199h-7.437v22.406c0 .803-.245 1.453-.735 1.95-.463.47-1.09.706-1.88.706ZM284.765 29.875c-.79 0-1.431-.248-1.921-.746-.463-.498-.695-1.148-.695-1.95V2.821c0-.803.232-1.439.695-1.91.49-.497 1.131-.746 1.921-.746.817 0 1.457.249 1.92.747.49.47.736 1.106.736 1.909v24.356c0 .803-.246 1.453-.736 1.95-.463.499-1.103.747-1.92.747ZM318.732 30c-2.806 0-5.244-.609-7.314-1.826-2.043-1.217-3.624-2.96-4.74-5.228-1.117-2.268-1.676-4.924-1.676-7.967 0-3.043.545-5.684 1.635-7.925 1.117-2.268 2.71-4.011 4.781-5.228C313.488.609 315.926 0 318.732 0s5.231.609 7.274 1.826c2.07 1.217 3.65 2.96 4.74 5.228 1.117 2.24 1.676 4.882 1.676 7.925s-.559 5.699-1.676 7.967-2.71 4.011-4.781 5.228c-2.043 1.217-4.454 1.826-7.233 1.826Zm0-4.274c2.643 0 4.7-.927 6.171-2.78 1.498-1.853 2.247-4.509 2.247-7.967 0-3.458-.749-6.1-2.247-7.925-1.471-1.853-3.528-2.78-6.171-2.78-2.669 0-4.753.927-6.252 2.78-1.471 1.826-2.206 4.467-2.206 7.925s.735 6.114 2.206 7.967c1.499 1.853 3.583 2.78 6.252 2.78ZM371.826.166c.763 0 1.362.249 1.798.747.463.47.695 1.106.695 1.909v24.356c0 .803-.232 1.453-.695 1.95-.463.499-1.062.747-1.798.747-.872 0-1.539-.318-2.002-.954l-14.915-19.71v17.967c0 .803-.218 1.453-.654 1.95-.436.499-1.035.747-1.798.747-.763 0-1.362-.248-1.798-.746-.436-.498-.654-1.148-.654-1.95V2.821c0-.803.232-1.439.695-1.91.463-.497 1.076-.746 1.838-.746.845 0 1.499.318 1.962.954l14.874 19.627V2.822c0-.803.218-1.439.654-1.91.463-.497 1.062-.746 1.798-.746ZM402.763 30c-2.098 0-4.087-.277-5.967-.83-1.852-.58-3.364-1.355-4.535-2.324-.627-.47-.94-1.134-.94-1.991 0-.581.163-1.08.49-1.494.354-.443.763-.664 1.226-.664.49 0 1.049.194 1.675.581 1.172.858 2.398 1.48 3.678 1.867 1.281.387 2.697.581 4.25.581 1.989 0 3.514-.346 4.577-1.037 1.062-.72 1.593-1.757 1.593-3.112 0-1.051-.504-1.854-1.512-2.407-.98-.58-2.628-1.134-4.944-1.66-2.397-.525-4.345-1.134-5.844-1.825-1.498-.692-2.628-1.577-3.391-2.656-.763-1.079-1.144-2.448-1.144-4.108 0-1.715.476-3.25 1.43-4.606.953-1.355 2.275-2.406 3.964-3.153C399.085.387 401.005 0 403.13 0c3.896 0 7.07 1.051 9.521 3.154.355.304.6.608.736.912.163.277.245.637.245 1.08 0 .58-.177 1.092-.531 1.535-.327.414-.722.622-1.185.622-.272 0-.531-.042-.776-.125a6.685 6.685 0 0 1-.899-.456c-1.117-.83-2.207-1.438-3.27-1.826-1.035-.415-2.315-.622-3.841-.622-1.852 0-3.323.387-4.413 1.162-1.062.747-1.594 1.798-1.594 3.153 0 1.134.477 2.006 1.431 2.614.953.609 2.574 1.176 4.862 1.702 2.425.553 4.386 1.175 5.885 1.867 1.525.664 2.683 1.521 3.473 2.572.817 1.052 1.226 2.365 1.226 3.942 0 1.715-.477 3.237-1.43 4.565-.926 1.3-2.248 2.323-3.964 3.07-1.689.72-3.637 1.079-5.843 1.079Z" fill="#EDB24E"/>
</svg><svg fill="none" viewBox="0 0 24 24" id="svgicons--btn-right-black" xmlns="http://www.w3.org/2000/svg">
    <path d="M16 19c0-.742.733-1.85 1.475-2.78.954-1.2 2.094-2.247 3.401-3.046C21.856 12.575 23.044 12 24 12m0 0c-.956 0-2.145-.575-3.124-1.174-1.307-.8-2.447-1.847-3.401-3.045C16.733 6.85 16 5.74 16 5m8 7H0" stroke="currentColor"/>
</svg><svg fill="none" viewBox="0 0 12 24" id="svgicons--control-left" xmlns="http://www.w3.org/2000/svg">
    <path d="M9.548 6.58 8.487 5.52l-5.779 5.777a.997.997 0 0 0 0 1.413l5.779 5.78 1.06-1.06-5.424-5.425L9.548 6.58Z" fill="#161616"/>
</svg><svg fill="none" viewBox="0 0 12 24" id="svgicons--control-right" xmlns="http://www.w3.org/2000/svg">
    <path d="m2.452 6.58 1.061-1.06 5.779 5.777a.997.997 0 0 1 0 1.413l-5.779 5.78-1.06-1.06 5.424-5.425L2.452 6.58Z" fill="#161616"/>
</svg><svg fill="none" viewBox="0 0 24 24" id="ui--btn-right-black" xmlns="http://www.w3.org/2000/svg">
    <path d="M16 19c0-.742.733-1.85 1.475-2.78.954-1.2 2.094-2.247 3.401-3.046C21.856 12.575 23.044 12 24 12m0 0c-.956 0-2.145-.575-3.124-1.174-1.307-.8-2.447-1.847-3.401-3.045C16.733 6.85 16 5.74 16 5m8 7H0" stroke="currentColor"/>
</svg><svg fill="none" viewBox="0 0 40 40" id="ui--card-more" xmlns="http://www.w3.org/2000/svg">
    <foreignObject x="-8" y="-8" width="56" height="56">
        <div xmlns="http://www.w3.org/1999/xhtml" style="backdrop-filter:blur(4px);clip-path:url(#ja);height:100%;width:100%"></div>
    </foreignObject>
    <circle data-figma-bg-blur-radius="8" cx="20" cy="20" r="20" fill="#ED952B"/>
    <path d="M16 16.002h8v8M16 24.002l8-8" stroke="#fff" stroke-width="2" stroke-linecap="round" stroke-linejoin="round"/>
    <defs>
        <clipPath id="ja" transform="translate(8 8)">
            <circle cx="20" cy="20" r="20"/>
        </clipPath>
    </defs>
</svg><svg fill="none" viewBox="0 0 40 40" id="ui--play" xmlns="http://www.w3.org/2000/svg">
    <foreignObject x="-8" y="-8" width="56" height="56">
        <div xmlns="http://www.w3.org/1999/xhtml" style="backdrop-filter:blur(4px);clip-path:url(#ka);height:100%;width:100%"></div>
    </foreignObject>
    <circle data-figma-bg-blur-radius="8" cx="20" cy="20" r="20" fill="#ED952B"/>
    <path d="m20.503 15.012-.066-.04c-.748-.455-1.406-.856-1.97-1.058a2.4 2.4 0 0 0-.976-.157 1.8 1.8 0 0 0-.963.37c-.579.434-.829 1.073-.966 1.78-.133.685-.184 1.577-.247 2.663l-.003.056c-.038.65-.062 1.293-.062 1.876s.024 1.227.062 1.877l.003.055c.063 1.086.114 1.978.247 2.662.137.708.387 1.346.966 1.78.286.216.607.344.963.37.342.026.67-.046.976-.156.564-.202 1.222-.603 1.97-1.057l.066-.04c.426-.26.844-.527 1.217-.79a24.03 24.03 0 0 0 1.335-1.022l.05-.041c.764-.623 1.412-1.152 1.86-1.672.488-.57.785-1.182.785-1.966s-.297-1.397-.786-1.966c-.447-.52-1.095-1.05-1.858-1.672l-.05-.041c-.454-.37-.91-.724-1.336-1.022-.397-.276-.803-.54-1.217-.79" fill="#fff"/>
    <defs>
        <clipPath id="ka" transform="translate(8 8)">
            <circle cx="20" cy="20" r="20"/>
        </clipPath>
    </defs>
</svg></svg>