<svg width="36" height="36" fill="none" xmlns="http://www.w3.org/2000/svg"><path d="M17.917 0C8.037 0 0 8.037 0 17.917s8.037 17.916 17.917 17.916 17.916-8.036 17.916-17.916S27.797 0 17.917 0zm0 33.333C9.415 33.333 2.5 26.418 2.5 17.917 2.5 9.415 9.415 2.5 17.917 2.5c8.501 0 15.416 6.915 15.416 15.417 0 8.501-6.915 15.416-15.416 15.416zm6.153-20.895c.063.153.097.315.097.479v6.666a1.25 1.25 0 01-2.5 0v-3.648L13.8 23.802a1.247 1.247 0 01-1.767 0 1.25 1.25 0 010-1.769l7.867-7.866h-3.65a1.25 1.25 0 010-2.5h6.667a1.253 1.253 0 011.153.771z" fill="#161616"/></svg>