<svg width="20" height="20" fill="none" xmlns="http://www.w3.org/2000/svg"><path fill-rule="evenodd" clip-rule="evenodd" d="M10 0C4.48 0 0 4.48 0 10s4.48 10 10 10c5.51 0 10-4.48 10-10S15.51 0 10 0zm6.605 4.61a8.502 8.502 0 011.93 5.314c-.281-.054-3.101-.629-5.943-.271-.065-.141-.12-.293-.184-.445a25.322 25.322 0 00-.564-1.236c3.145-1.28 4.577-3.124 4.761-3.362zM10 1.475c2.17 0 4.154.814 5.662 2.148-.152.216-1.443 1.941-4.48 3.08-1.399-2.57-2.95-4.675-3.189-5A8.686 8.686 0 0110 1.475zm-3.633.803a53.902 53.902 0 013.167 4.935c-3.992 1.062-7.517 1.04-7.896 1.04a8.581 8.581 0 014.729-5.975zM1.453 10.01v-.26c.37.01 4.512.065 8.775-1.215.25.477.477.965.694 1.453-.109.033-.228.065-.336.098-4.404 1.42-6.747 5.303-6.942 5.629a8.521 8.521 0 01-2.19-5.705zM10 18.547a8.482 8.482 0 01-5.239-1.8c.152-.315 1.888-3.656 6.703-5.337.022-.01.033-.01.054-.022a35.316 35.316 0 011.823 6.475 8.4 8.4 0 01-3.341.684zm4.761-1.465c-.086-.52-.542-3.015-1.66-6.084 2.68-.423 5.023.271 5.315.369a8.468 8.468 0 01-3.655 5.715z" fill="#161616"/></svg>