<svg width="20" height="20" fill="none" xmlns="http://www.w3.org/2000/svg"><path d="M6.292 18.126c7.545 0 11.673-6.253 11.673-11.674 0-.176-.004-.355-.012-.531A8.332 8.332 0 0020 3.797a8.09 8.09 0 01-2.355.644 4.125 4.125 0 001.804-2.269 8.247 8.247 0 01-2.605.996A4.108 4.108 0 009.85 6.909a11.654 11.654 0 01-8.456-4.284 4.108 4.108 0 001.27 5.476 4.108 4.108 0 01-1.86-.512v.05a4.102 4.102 0 003.293 4.024 4.078 4.078 0 01-1.851.07 4.111 4.111 0 003.831 2.852A8.23 8.23 0 010 16.283a11.64 11.64 0 006.292 1.843z" fill="#161616"/></svg>