<svg width="36" height="36" viewBox="0 0 36 36" fill="none" xmlns="http://www.w3.org/2000/svg">
<path d="M17.9167 0C8.03667 0 0 8.03667 0 17.9167C0 27.7967 8.03667 35.8333 17.9167 35.8333C27.7967 35.8333 35.8333 27.7967 35.8333 17.9167C35.8333 8.03667 27.7967 0 17.9167 0ZM17.9167 33.3333C9.415 33.3333 2.5 26.4183 2.5 17.9167C2.5 9.415 9.415 2.5 17.9167 2.5C26.4183 2.5 33.3333 9.415 33.3333 17.9167C33.3333 26.4183 26.4183 33.3333 17.9167 33.3333ZM24.0698 12.4382C24.1332 12.5915 24.1667 12.7533 24.1667 12.9167V19.5833C24.1667 20.2733 23.6067 20.8333 22.9167 20.8333C22.2267 20.8333 21.6667 20.2733 21.6667 19.5833V15.9351L13.8 23.8017C13.5567 24.045 13.2367 24.1683 12.9167 24.1683C12.5967 24.1683 12.2766 24.0467 12.0333 23.8017C11.545 23.3133 11.545 22.5216 12.0333 22.0333L19.8999 14.1667H16.25C15.56 14.1667 15 13.6067 15 12.9167C15 12.2267 15.56 11.6667 16.25 11.6667H22.9167C23.08 11.6667 23.2418 11.7002 23.3952 11.7635C23.7002 11.8902 23.9432 12.1332 24.0698 12.4382Z" fill="#161616"/>
</svg>
